# xmcd
#
# Track frame offsets:
#       150
#       17353
#       31223
#       52836
#       71200
#       90780
#       107939
#       120528
#       136995
#       152906
#       164069
#       179202
#       196774
#
# Disc length: 2819 seconds
#
# Revision: 2
# Processed by: cddbd v1.5.2PL0 Copyright (c) Steve Scherf et al.
# Submitted via: FreeDbEdit v0.1
#
DISCID=aa0b010d
DTITLE=Dixie Chicks - Fly
DYEAR=1999
DGENRE=Country
TTITLE0=Ready to Run
TTITLE1=If I Fall You're Going Down With Me
TTITLE2=Cowboy Take Me Away
TTITLE3=Cold Day in July
TTITLE4=Good Bye Earl
TTITLE5=Hello Mr. Heartache
TTITLE6=Don't Waste Your Heart on Me
TTITLE7=Sin Wagon
TTITLE8=Without You
TTITLE9=Some Days Gotta Dance
TTITLE10=Hole in My Head
TTITLE11=Heartbreak Town
TTITLE12=Let Him Fly
EXTD=
EXTT0=
EXTT1=
EXTT2=
EXTT3=
EXTT4=
EXTT5=
EXTT6=
EXTT7=
EXTT8=
EXTT9=
EXTT10=
EXTT11=
EXTT12=
PLAYORDER=
